<?xml version="1.0" standalone="no"?>
<!DOCTYPE svg PUBLIC "-//W3C//DTD SVG 20010904//EN"
 "http://www.w3.org/TR/2001/REC-SVG-20010904/DTD/svg10.dtd">
<svg version="1.0" xmlns="http://www.w3.org/2000/svg"
 width="1024.000000pt" height="1024.000000pt" viewBox="0 0 1024.000000 1024.000000"
 preserveAspectRatio="xMidYMid meet">
<metadata>
Created by potrace 1.14, written by Peter Selinger 2001-2017
</metadata>
<g transform="translate(0.000000,1024.000000) scale(0.100000,-0.100000)"
fill="#000000" stroke="none">
<path d="M2787 7496 c-12 -23 -28 -54 -36 -71 -8 -16 -18 -32 -21 -35 -3 -3
-25 -45 -50 -95 -25 -49 -48 -91 -52 -93 -5 -2 -8 -12 -8 -22 0 -10 -4 -20 -8
-22 -4 -1 -24 -34 -44 -73 -19 -38 -51 -99 -70 -135 -56 -105 -150 -282 -172
-325 -12 -22 -26 -47 -31 -55 -5 -8 -10 -21 -12 -29 -1 -8 -5 -17 -10 -20 -4
-3 -24 -37 -43 -76 -19 -38 -39 -77 -46 -85 -6 -8 -15 -26 -19 -40 -4 -14 -11
-27 -15 -30 -4 -3 -18 -27 -32 -55 -22 -44 -44 -86 -152 -290 -26 -48 -28 -84
-4 -69 15 10 179 11 184 2 3 -4 11 -5 20 -1 23 9 116 10 141 1 12 -4 24 -4 27
0 5 9 73 9 82 0 3 -4 16 -4 28 0 18 7 172 8 186 2 3 -1 8 -2 12 -1 4 0 15 -10
24 -24 18 -28 26 -9 -100 -250 -38 -71 -83 -157 -100 -190 -17 -33 -33 -62
-36 -65 -3 -3 -29 -51 -58 -108 l-53 -102 393 2 c390 3 392 3 403 24 6 12 17
29 24 37 7 9 10 21 6 27 -3 5 -2 10 2 10 5 0 24 30 43 68 19 37 39 70 45 74 5
4 6 8 1 8 -5 0 -3 6 3 14 7 8 29 47 50 88 21 40 64 123 96 183 32 61 70 133
83 160 14 28 32 58 40 68 9 9 11 18 6 18 -5 1 -167 2 -360 3 -373 1 -384 3
-384 49 0 11 27 70 59 131 32 61 77 145 98 186 43 80 133 249 169 315 12 22
42 78 65 125 24 47 46 87 49 90 3 3 12 18 19 33 l15 28 33 -53 c31 -49 96
-150 264 -412 37 -57 72 -114 79 -126 7 -13 21 -33 31 -44 11 -11 19 -26 19
-33 0 -7 5 -13 10 -13 6 0 10 -5 10 -11 0 -6 14 -30 30 -54 17 -24 30 -46 30
-50 0 -4 6 -12 13 -19 13 -15 19 -24 77 -114 22 -34 40 -65 40 -68 0 -3 6 -11
13 -19 6 -7 48 -70 92 -140 44 -69 117 -183 163 -253 45 -69 82 -128 82 -130
0 -2 14 -23 30 -47 17 -24 30 -48 30 -54 0 -6 4 -11 8 -11 4 0 21 -23 37 -50
l29 -50 386 2 385 3 23 50 c13 28 29 53 34 56 5 3 9 9 8 13 -1 7 83 175 137
274 19 34 30 62 26 62 -4 0 -3 4 3 8 6 4 33 50 59 102 27 52 57 107 67 123 11
15 16 27 12 27 -3 0 -2 6 4 13 5 6 41 74 80 149 39 76 74 143 79 150 4 7 8 15
8 18 2 13 49 96 59 102 6 4 7 8 3 8 -4 0 5 24 21 53 16 28 60 113 98 187 38
74 74 138 79 142 6 4 7 8 2 8 -4 0 0 11 9 25 8 13 14 28 11 32 -3 4 -168 8
-367 7 l-362 -1 -10 22 c-8 18 0 40 43 121 28 54 65 126 82 159 17 33 33 62
36 65 3 3 14 21 23 40 9 19 21 45 27 57 l11 21 -389 1 -389 0 -38 -77 c-22
-42 -45 -83 -51 -90 -7 -7 -16 -24 -19 -38 -3 -13 -11 -24 -17 -24 -6 0 -7 -3
-4 -7 4 -3 3 -11 -2 -17 -10 -13 -121 -222 -121 -229 0 -2 160 -4 355 -4 256
0 359 -3 367 -11 26 -26 16 -59 -58 -192 -34 -61 -154 -288 -172 -325 -8 -16
-22 -38 -30 -47 -8 -10 -12 -18 -8 -18 4 0 -1 -15 -12 -32 -41 -67 -61 -108
-54 -108 4 0 2 -4 -4 -8 -6 -4 -30 -45 -53 -90 l-42 -84 -29 38 c-15 21 -27
41 -25 44 2 4 -5 13 -16 20 -10 8 -19 18 -19 23 0 4 -22 41 -50 82 -27 41 -50
77 -50 80 0 3 -5 11 -10 18 -6 7 -63 93 -127 192 -63 99 -145 224 -180 279
-35 54 -69 109 -75 122 -6 13 -14 24 -18 24 -4 0 -13 14 -20 30 -7 17 -16 30
-21 30 -5 0 -9 4 -9 10 0 9 -47 82 -235 370 -38 58 -68 108 -67 111 0 4 -8 15
-18 24 -11 10 -20 23 -20 29 0 6 -11 23 -25 38 -14 15 -25 31 -25 36 0 5 -9
19 -20 32 -11 13 -20 29 -20 35 0 38 -22 40 -422 41 l-389 0 -22 -40z"/>
<path d="M6621 7446 c-28 -53 -52 -99 -52 -103 -1 -5 -9 -19 -18 -33 -9 -14
-23 -38 -31 -55 -8 -16 -22 -42 -32 -56 -10 -14 -15 -29 -11 -33 3 -3 1 -6 -5
-6 -7 0 -12 -4 -12 -10 0 -5 -20 -46 -45 -91 -25 -45 -45 -84 -45 -86 0 -3 29
-3 65 -1 36 1 65 1 65 -2 0 -5 164 -3 213 3 15 2 27 1 27 -2 0 -7 195 -4 223
3 9 2 17 1 17 -2 0 -7 156 -6 213 1 15 2 27 1 27 -2 0 -3 41 -6 91 -5 87 1
149 -11 149 -28 0 -4 6 -8 13 -8 15 0 57 -61 57 -83 0 -9 4 -17 9 -17 11 0 -4
-82 -23 -117 -20 -40 -74 -77 -113 -77 -18 -1 -33 -3 -33 -6 0 -3 -266 -5
-591 -5 -581 0 -592 0 -603 -20 -6 -11 -19 -32 -29 -47 -10 -16 -15 -28 -10
-28 4 0 4 -4 -2 -8 -5 -4 -17 -21 -26 -38 -9 -17 -34 -64 -55 -105 -21 -41
-43 -77 -49 -81 -5 -4 -6 -8 -2 -8 5 0 0 -15 -11 -32 -11 -18 -40 -72 -65
-119 l-45 -86 728 0 c774 0 770 0 814 -47 35 -39 47 -63 51 -105 8 -80 -44
-159 -118 -179 -18 -5 -397 -8 -844 -8 l-811 1 -42 -80 c-24 -44 -60 -111 -80
-150 -21 -38 -61 -115 -90 -170 -29 -55 -56 -104 -61 -109 -5 -6 -9 -18 -9
-28 0 -10 -4 -18 -10 -18 -5 0 -10 -4 -10 -9 0 -9 1819 -7 1860 3 14 3 45 9
69 12 25 3 62 12 83 20 21 7 39 13 41 13 3 -1 46 17 99 40 55 23 143 79 176
110 12 12 22 19 22 16 0 -10 141 149 151 170 9 21 21 40 52 87 10 16 15 28 10
28 -4 0 -3 4 3 8 27 17 106 280 108 360 1 12 3 22 6 22 7 0 4 96 -4 140 -8 39
-45 122 -59 131 -15 10 -1 36 30 56 29 19 93 80 93 89 0 3 9 15 21 27 29 31
76 127 105 216 14 42 28 83 31 91 4 8 7 20 7 25 1 6 8 43 15 84 17 97 8 287
-17 325 -4 6 -7 13 -7 16 -3 22 -53 97 -91 135 -37 38 -151 111 -182 116 -4 1
-11 3 -17 5 -113 37 -117 37 -731 41 l-601 4 -52 -95z"/>
<path d="M639 4568 c-24 -24 -126 -186 -158 -250 -7 -16 -17 -28 -21 -28 -4 0
-11 -8 -14 -17 -3 -10 -12 -27 -19 -38 -6 -11 -23 -38 -36 -60 -24 -40 -46
-75 -94 -152 -15 -24 -27 -46 -26 -49 0 -4 -3 -10 -8 -13 -5 -3 -22 -28 -38
-55 -17 -28 -41 -68 -55 -91 -14 -23 -49 -81 -79 -131 -29 -49 -59 -96 -66
-104 -7 -8 -16 -25 -19 -37 -7 -22 -5 -22 59 -20 37 1 69 -1 71 -5 3 -5 11 -5
17 -1 16 10 88 10 109 0 10 -4 18 -4 18 0 0 5 17 7 38 6 20 -1 44 0 53 3 9 2
40 45 69 94 29 50 57 90 62 90 4 0 8 7 8 14 0 8 14 35 30 59 17 25 30 48 30
51 0 7 10 21 38 51 7 8 11 15 8 15 -3 0 14 32 39 70 25 39 45 75 45 80 0 6 5
10 10 10 6 0 10 6 10 13 1 17 50 75 51 60 1 -7 2 -16 3 -20 1 -5 5 -21 9 -38
4 -16 10 -41 13 -55 4 -14 8 -40 11 -57 3 -18 9 -33 15 -33 5 0 7 -4 4 -8 -3
-5 1 -33 9 -63 9 -30 17 -67 20 -84 3 -16 17 -73 32 -125 14 -52 25 -102 25
-111 0 -14 12 -16 89 -15 49 0 89 -3 89 -7 0 -4 8 -4 18 0 21 10 93 10 109 0
6 -4 14 -3 17 1 3 5 17 7 31 4 35 -6 45 5 116 121 34 56 76 125 93 152 17 28
36 59 43 70 53 89 98 161 103 165 7 7 28 41 40 65 5 11 24 43 42 72 34 54 115
186 133 215 41 69 100 164 105 168 4 3 9 13 13 23 7 19 15 18 -238 20 l-130 0
-33 -44 c-18 -24 -37 -50 -43 -56 -5 -7 -6 -13 -2 -13 4 0 3 -4 -3 -8 -8 -6
-94 -143 -149 -239 -6 -10 -27 -44 -48 -76 -20 -31 -37 -61 -37 -66 0 -5 -6
-14 -13 -20 -8 -6 -24 -31 -37 -56 -13 -25 -27 -42 -31 -38 -5 7 -31 104 -54
208 -8 34 -14 57 -30 125 -9 36 -18 72 -20 80 -2 8 -12 55 -23 103 -11 49 -22
91 -25 94 -3 2 -88 6 -189 6 l-183 2 -26 -27z"/>
<path d="M2110 4580 c-16 -13 -20 -30 -22 -107 -2 -51 -7 -93 -12 -93 -5 0 -3
-6 3 -13 6 -8 8 -16 5 -19 -3 -4 -7 -48 -9 -100 -3 -51 -7 -140 -10 -198 -3
-58 -7 -145 -10 -195 -10 -199 -16 -289 -20 -293 -2 -3 0 -13 5 -22 8 -15 21
-18 67 -16 32 1 66 -2 76 -6 9 -5 17 -5 17 -1 0 5 24 7 53 5 52 -2 98 -2 151
1 26 1 59 24 121 82 12 11 43 38 71 60 27 22 56 47 64 55 9 8 40 35 70 60 29
25 58 50 64 55 6 6 43 36 81 68 39 32 84 71 100 86 17 15 57 49 90 76 33 28
65 55 71 60 6 6 35 30 64 55 30 25 62 53 72 63 10 9 20 17 23 17 2 0 17 12 33
28 16 15 40 36 53 47 60 50 217 183 246 208 17 16 30 34 27 40 -4 11 -167 14
-389 8 -19 -1 -44 -13 -67 -34 -20 -17 -56 -48 -80 -69 -69 -58 -131 -111
-153 -132 -11 -10 -36 -30 -55 -45 -19 -14 -46 -38 -60 -53 -13 -16 -28 -28
-33 -28 -4 0 -18 -10 -30 -23 -12 -13 -51 -47 -87 -76 -36 -30 -72 -61 -81
-70 -27 -28 -97 -83 -105 -82 -8 1 -8 54 0 211 3 58 8 155 11 215 3 61 7 122
9 136 7 51 2 52 -208 53 -160 1 -200 -2 -216 -14z"/>
<path d="M3843 4565 c-14 -16 -32 -44 -41 -62 -9 -18 -19 -33 -24 -33 -4 0 -8
-4 -8 -9 0 -10 -100 -175 -120 -198 -5 -7 -10 -14 -10 -16 0 -2 -66 -112 -146
-243 -81 -131 -156 -255 -167 -274 -10 -19 -29 -48 -41 -65 -11 -16 -21 -33
-21 -37 0 -4 -7 -16 -15 -26 -45 -56 -51 -86 -15 -80 14 3 25 2 25 -3 0 -4 14
-4 30 1 19 5 30 5 30 -1 0 -6 5 -7 11 -4 16 11 69 12 69 3 0 -5 8 -4 18 1 11
6 24 6 35 0 9 -6 17 -6 17 -2 0 4 26 7 57 5 32 -1 64 -2 71 -2 6 0 19 0 27 0
8 0 22 0 30 0 8 0 22 0 30 0 8 0 22 0 30 0 8 0 22 0 30 0 8 0 22 0 30 0 8 0
22 0 30 0 8 0 22 0 30 0 8 0 22 0 30 0 8 0 22 0 30 0 8 0 22 0 30 0 8 0 22 0
30 0 8 0 22 0 30 0 8 0 22 0 30 0 8 0 22 0 30 0 8 0 22 0 30 0 8 0 21 0 28 0
6 0 26 0 42 -1 17 -1 32 0 35 1 3 1 28 3 55 5 28 2 59 6 70 8 61 15 180 76
197 101 4 6 8 8 8 4 0 -22 123 103 165 167 53 82 74 139 71 197 -3 56 -2 58
35 82 64 43 161 146 174 185 3 12 10 21 14 21 5 0 20 27 35 61 28 65 33 123
14 164 -10 23 -69 68 -93 71 -5 0 -12 2 -15 3 -3 1 -238 3 -524 4 l-518 2 -25
-30z m723 -240 c18 -25 18 -26 -9 -66 -12 -19 -42 -44 -66 -56 -41 -21 -57
-22 -267 -23 -123 0 -224 2 -224 5 0 9 34 59 45 67 5 4 6 8 2 8 -9 0 29 59 48
75 8 7 96 10 235 10 207 -1 223 -2 236 -20z m-252 -411 c25 -33 -25 -110 -87
-133 -29 -11 -477 -16 -477 -5 0 7 22 48 29 54 3 3 13 18 21 33 8 16 23 38 35
50 19 21 27 22 243 21 205 -1 224 -3 236 -20z"/>
<path d="M5407 4518 c-9 -7 -46 -60 -82 -118 -35 -58 -68 -110 -72 -116 -14
-18 -32 -48 -54 -91 -13 -24 -26 -43 -31 -43 -4 0 -8 -6 -8 -14 0 -8 -6 -21
-13 -28 -6 -7 -21 -30 -32 -50 -11 -21 -23 -38 -28 -38 -4 0 -5 -4 -2 -10 3
-5 2 -10 -4 -10 -5 0 -12 -9 -16 -20 -3 -11 -21 -41 -38 -68 -35 -53 -35 -52
-103 -167 -27 -44 -52 -81 -56 -83 -4 -2 -8 -8 -8 -12 0 -5 -13 -31 -30 -57
-32 -49 -39 -78 -17 -70 6 2 19 1 28 -4 8 -4 21 -4 29 1 7 4 23 4 36 0 12 -5
25 -6 28 -3 8 8 76 9 76 1 0 -4 14 -3 30 2 17 5 30 5 30 0 0 -4 8 -7 18 -5 9
2 29 6 44 9 19 4 37 23 65 69 21 34 44 72 50 82 7 11 29 47 50 81 l37 61 286
0 c236 0 323 4 390 18 3 0 32 13 65 28 69 32 155 95 199 145 32 36 96 127 96
136 0 9 73 121 82 127 6 3 9 8 8 10 -1 2 4 18 11 34 33 82 10 163 -55 194 -39
18 -69 19 -516 20 -370 1 -480 -2 -493 -11z m634 -235 c21 -21 12 -60 -29
-119 -49 -73 -92 -105 -143 -109 -22 -1 -42 -4 -44 -6 -8 -9 -335 3 -335 12 0
5 11 26 23 47 13 20 44 69 68 107 24 39 47 72 50 75 15 11 399 4 410 -7z"/>
<path d="M6701 4514 c-11 -8 -21 -22 -21 -30 0 -8 -4 -14 -10 -14 -5 0 -10 -4
-10 -9 0 -12 -63 -115 -72 -119 -5 -2 -8 -10 -8 -18 0 -8 -4 -14 -10 -14 -5 0
-9 -3 -8 -7 1 -5 -13 -33 -33 -63 -19 -30 -49 -77 -65 -103 -16 -27 -39 -65
-52 -85 -12 -21 -31 -53 -42 -72 -11 -19 -41 -66 -65 -105 -57 -88 -95 -167
-97 -197 -3 -75 5 -94 54 -133 17 -14 88 -35 88 -27 0 4 11 7 25 7 14 0 25 -4
25 -8 0 -4 8 -3 18 2 11 6 24 6 35 0 9 -6 17 -6 17 -2 0 4 11 8 25 8 14 0 25
-4 25 -8 0 -5 5 -5 11 -2 16 11 69 12 69 3 0 -5 8 -4 18 1 11 6 24 6 35 0 9
-6 17 -6 17 -2 0 4 26 7 57 5 32 -1 64 -2 71 -2 6 0 19 0 27 0 8 0 22 0 30 0
8 0 22 0 30 0 8 0 22 0 30 0 8 0 22 0 30 0 8 0 22 0 30 0 8 0 22 0 30 0 8 0
22 0 30 0 54 0 85 5 85 12 0 5 12 25 26 44 15 19 23 34 20 34 -4 0 1 9 11 19
25 28 76 121 66 122 -4 0 -138 1 -296 2 -262 2 -290 4 -301 20 -14 18 -10 67
6 67 5 0 6 5 3 10 -3 6 1 13 9 16 8 3 18 15 22 27 7 21 53 97 65 107 3 3 8 10
10 15 4 10 83 143 119 200 28 45 85 140 89 150 2 6 7 12 10 15 11 9 69 108 76
129 6 20 3 20 -163 20 -133 0 -174 -4 -191 -15z"/>
<path d="M8425 4518 c-19 -10 -139 -110 -160 -132 -5 -6 -32 -29 -60 -51 -27
-22 -57 -47 -65 -55 -9 -8 -40 -35 -70 -60 -30 -25 -57 -47 -60 -51 -3 -3 -36
-32 -75 -64 -38 -33 -75 -64 -81 -70 -7 -5 -31 -26 -54 -45 -23 -19 -47 -40
-54 -45 -10 -10 -228 -196 -310 -265 -17 -14 -42 -38 -58 -53 -15 -15 -28 -25
-28 -22 0 4 -18 -12 -40 -34 -45 -45 -49 -56 -20 -48 11 3 20 2 20 -2 0 -4 20
-5 45 -1 25 4 45 3 45 -2 0 -5 8 -5 17 1 11 6 24 6 35 0 10 -5 18 -6 18 -1 0
9 53 8 69 -3 6 -3 11 -3 11 2 0 4 11 8 25 8 14 0 25 -4 25 -8 0 -4 8 -3 19 2
10 6 21 8 24 4 8 -8 68 33 127 86 l45 41 259 -3 260 -2 -3 -57 c-2 -48 1 -58
18 -67 11 -6 22 -7 25 -2 3 5 21 6 38 2 18 -4 48 -4 66 0 17 3 32 3 32 -2 0
-4 14 -4 30 1 19 5 30 5 30 -1 0 -6 6 -6 18 0 11 6 24 6 34 0 10 -6 19 -6 23
0 3 6 15 7 28 2 29 -11 66 7 72 33 2 12 7 80 10 151 7 157 13 281 20 395 3 47
8 139 11 205 3 66 7 138 8 160 2 22 1 45 -1 52 -6 16 -339 17 -368 1z m-71
-515 c-3 -54 -7 -103 -9 -109 -3 -11 -219 -17 -237 -7 -5 2 22 30 60 61 37 31
69 60 70 64 2 5 8 6 13 2 5 -3 9 1 9 8 1 12 76 76 92 77 4 1 5 -43 2 -96z"/>
<path d="M8925 4517 c-17 -9 -19 -72 -4 -114 5 -13 4 -25 -2 -28 -5 -4 -6 -11
-3 -17 4 -5 8 -26 10 -46 1 -21 6 -66 9 -102 6 -70 13 -146 20 -225 2 -27 7
-76 10 -108 l6 -58 -86 -140 c-79 -130 -94 -168 -59 -155 7 3 16 1 19 -4 4 -6
13 -7 23 -2 9 5 28 6 42 2 14 -3 42 -3 62 0 20 4 42 4 49 0 6 -4 25 -4 40 0
16 5 29 5 29 0 0 -15 78 12 84 28 3 10 14 29 23 44 10 15 38 60 62 100 25 40
48 75 53 76 4 2 8 10 8 18 0 18 19 34 170 149 63 47 130 98 149 113 19 15 96
73 170 129 75 56 141 106 146 110 6 4 31 25 57 46 25 20 51 37 56 37 6 0 12 4
14 8 2 5 32 31 68 58 76 57 90 69 90 82 0 13 -350 13 -374 0 -28 -15 -310
-230 -314 -240 -2 -4 -8 -8 -13 -8 -9 0 -37 -21 -71 -52 -10 -10 -23 -18 -28
-18 -6 0 -13 -7 -16 -15 -4 -8 -12 -15 -20 -15 -8 0 -14 -4 -14 -10 0 -5 -6
-10 -14 -10 -8 0 -17 -7 -20 -16 -14 -36 -19 -12 -30 121 -12 138 -18 213 -20
240 l-3 30 -181 1 c-100 0 -189 -4 -197 -9z"/>
<path d="M4700 3210 c-12 -3 -28 -16 -35 -30 -13 -23 -129 -309 -130 -320 -1
-3 -7 -16 -15 -30 -7 -14 -13 -27 -13 -30 0 -3 -3 -16 -8 -29 -12 -29 -3 -58
19 -70 9 -4 862 -8 1913 -7 1791 1 1896 2 1913 19 10 9 15 17 12 17 -3 0 6 26
20 58 14 31 27 62 28 67 4 12 14 40 31 80 19 47 40 100 41 105 0 3 9 23 19 45
26 56 30 99 9 116 -14 11 -307 14 -1900 14 -1035 0 -1892 -2 -1904 -5z"/>
<path d="M8622 3196 c17 -29 16 -33 -63 -228 -39 -95 -72 -177 -73 -183 -8
-28 -26 -64 -40 -78 -15 -14 -12 -15 33 -13 49 2 86 20 75 37 -3 5 0 9 6 9 6
0 9 4 5 9 -3 5 -1 12 4 15 5 3 12 18 15 32 4 14 15 45 26 68 10 22 26 64 36
91 10 28 24 61 31 75 7 14 13 33 13 43 0 9 5 17 10 17 6 0 10 8 10 18 0 10 3
22 8 26 11 12 9 50 -5 64 -7 7 -33 14 -57 16 -44 4 -45 3 -34 -18z"/>
<path d="M8800 3213 c0 -1 8 -10 19 -20 18 -18 16 -24 -71 -243 -49 -124 -97
-233 -105 -243 -15 -16 -14 -17 28 -14 24 1 51 7 60 12 17 10 189 433 189 463
0 33 -17 44 -69 46 -28 1 -51 1 -51 -1z"/>
<path d="M9015 3194 c13 -26 9 -74 -7 -74 -5 0 -7 -4 -4 -8 3 -5 -1 -21 -9
-35 -8 -15 -15 -31 -16 -35 -2 -10 -18 -54 -28 -77 -17 -40 -33 -80 -33 -85
-1 -3 -14 -34 -30 -68 -15 -35 -28 -69 -28 -75 0 -6 -7 -18 -16 -28 -14 -16
-13 -17 23 -17 52 0 72 13 89 56 18 46 28 68 45 107 7 17 13 32 13 35 1 6 24
64 41 105 7 17 21 53 31 80 10 28 21 52 25 55 9 7 5 58 -6 69 -6 6 -31 12 -56
14 -46 4 -46 4 -34 -19z"/>
</g>
</svg>
